<?xml version="1.0" standalone="no"?>
<!DOCTYPE svg PUBLIC "-//W3C//DTD SVG 20010904//EN"
 "http://www.w3.org/TR/2001/REC-SVG-20010904/DTD/svg10.dtd">
<svg version="1.0" xmlns="http://www.w3.org/2000/svg"
 width="370.000000pt" height="512.000000pt" viewBox="0 0 370.000000 512.000000"
 preserveAspectRatio="xMidYMid meet">

<g transform="translate(0.000000,512.000000) scale(0.100000,-0.100000)"
fill="#000000" stroke="none">
<path d="M1378 5068 c-118 -64 -203 -177 -227 -301 -5 -26 -11 -50 -14 -53 -2
-3 -33 5 -68 17 -53 19 -85 23 -184 22 -67 0 -132 -5 -147 -11 -32 -13 -38
-49 -10 -58 78 -25 212 -117 212 -147 0 -7 -26 -22 -57 -34 -126 -49 -274
-177 -341 -294 -99 -175 -106 -384 -21 -625 17 -47 29 -87 27 -89 -2 -1 -21
-12 -43 -23 -53 -26 -81 -58 -100 -111 -32 -93 -13 -218 55 -357 82 -167 237
-272 408 -275 35 0 40 -4 82 -72 57 -90 227 -263 395 -401 132 -109 141 -121
144 -192 1 -29 -3 -33 -60 -54 -37 -13 -75 -36 -98 -59 -28 -28 -51 -40 -96
-50 -317 -69 -572 -415 -712 -966 -20 -77 -36 -165 -37 -195 -1 -52 0 -55 29
-64 17 -6 31 -11 33 -12 2 -1 -7 -48 -18 -105 -27 -128 -38 -359 -21 -412 17
-50 67 -91 148 -118 l68 -24 1135 0 1135 0 68 23 c68 24 119 58 138 94 33 62
28 260 -11 441 -11 50 -20 92 -20 94 0 1 16 10 36 18 l37 15 -7 52 c-12 84
-81 346 -121 454 -99 267 -225 460 -377 580 -83 64 -150 98 -244 122 -54 13
-79 26 -109 55 -22 21 -63 46 -98 59 l-59 22 5 55 c5 50 10 59 43 86 232 186
424 373 494 483 43 68 46 71 85 71 58 1 150 27 207 58 70 38 161 139 202 226
101 209 83 399 -43 459 -43 21 -49 27 -55 63 -4 22 -10 50 -13 63 l-5 23 43
-17 c24 -10 46 -20 49 -23 3 -3 12 -7 20 -7 8 -1 23 -3 34 -5 37 -8 41 23 17
143 -25 130 -76 290 -120 377 -17 33 -31 63 -31 67 0 8 177 -1 200 -10 25 -10
43 9 36 37 -10 40 -104 175 -175 249 -162 173 -390 291 -668 347 -55 12 -115
21 -132 21 -17 0 -31 4 -31 9 0 10 105 82 183 125 88 50 60 71 -117 87 -334
31 -716 -66 -989 -250 -42 -28 -79 -51 -83 -51 -4 0 -4 36 -2 81 4 71 10 91
52 175 67 130 53 152 -56 92z m1216 -970 l60 -13 17 -82 c15 -68 35 -126 76
-222 5 -11 0 -13 -27 -8 -18 4 -157 7 -309 8 -200 1 -264 4 -231 11 59 12 240
15 365 5 l100 -7 -33 29 c-49 42 -120 78 -193 98 -69 18 -272 22 -339 6 l-35
-9 -3 -71 c-2 -60 -6 -73 -22 -78 -10 -3 -33 -22 -51 -42 l-32 -37 7 -108 6
-108 -89 0 -90 0 2 114 c2 114 2 115 -27 145 -16 17 -38 33 -47 36 -15 5 -19
19 -21 78 l-3 71 -35 9 c-66 15 -270 12 -337 -6 -76 -20 -146 -55 -193 -96
l-35 -31 100 7 c125 10 306 7 365 -5 33 -7 -32 -10 -234 -11 -261 -1 -278 0
-271 17 36 84 47 125 52 194 5 67 9 79 22 74 247 -80 436 -84 731 -12 215 53
327 66 525 61 94 -2 197 -10 229 -17z m300 -566 c-6 -61 -7 -62 -37 -62 l-30
0 7 61 c3 34 6 76 6 93 l0 31 31 -31 c29 -30 30 -33 23 -92z m-2009 16 l7 -78
-31 0 c-24 0 -31 4 -31 19 0 10 -3 39 -6 64 -6 42 -5 46 22 60 16 8 30 15 30
14 1 -1 5 -37 9 -79z m747 71 c4 -12 -29 -389 -37 -426 l-5 -23 -261 0 c-199
0 -261 3 -264 13 -7 20 -41 424 -37 436 5 16 599 15 604 0z m1060 0 c4 -12
-30 -416 -37 -436 -3 -10 -65 -13 -265 -13 -200 0 -262 3 -265 13 -7 22 -43
432 -38 440 7 12 601 9 605 -4z m-2004 -199 c38 -17 42 -22 42 -55 0 -34 1
-35 38 -35 l39 0 28 -227 c15 -126 34 -248 41 -272 l13 -44 -69 5 c-177 13
-322 165 -367 385 -35 167 19 262 147 262 25 0 64 -8 88 -19z m2512 2 c54 -27
75 -73 74 -162 -1 -173 -114 -369 -251 -436 -36 -18 -76 -28 -124 -32 l-70 -5
11 27 c9 24 48 293 65 454 l7 62 39 0 c38 0 39 1 39 35 0 33 4 38 43 55 53 24
121 25 167 2z m-2284 -202 c12 -118 22 -143 67 -170 30 -19 53 -20 345 -20
346 0 357 2 388 63 10 17 22 77 28 132 l11 100 105 0 105 0 11 -105 c12 -115
27 -151 75 -176 41 -21 637 -21 678 0 48 25 63 61 75 176 11 104 11 105 39
108 15 2 27 0 27 -5 0 -47 -63 -479 -75 -512 -37 -107 -149 -247 -312 -393
-221 -198 -348 -290 -451 -328 -49 -19 -74 -21 -187 -18 -128 3 -133 4 -206
40 -90 45 -203 130 -372 277 -203 179 -327 343 -356 471 -9 41 -61 431 -61
459 0 8 11 11 27 9 28 -3 28 -4 39 -108z m852 -1212 c117 -17 240 -1 336 45
l72 34 -2 -106 -2 -106 -50 -23 c-147 -66 -371 -67 -521 0 l-54 24 -2 105 -1
106 71 -33 c45 -22 100 -38 153 -46z m-263 -55 c-9 -37 -11 -38 -32 -22 -12
10 -11 5 5 -17 65 -93 230 -164 382 -164 152 0 317 71 382 164 17 24 18 28 4
17 -15 -13 -19 -13 -27 0 -5 8 -9 22 -9 32 0 14 5 16 28 11 48 -12 99 -42 127
-76 23 -27 39 -35 92 -45 148 -28 318 -152 431 -316 112 -162 219 -431 276
-690 l23 -109 -25 -9 c-46 -18 -244 -47 -364 -54 l-118 -7 0 231 c0 186 -3
239 -15 269 -21 49 -52 81 -100 103 -38 17 -80 19 -705 19 -625 0 -667 -2
-705 -19 -48 -22 -79 -54 -100 -103 -12 -30 -15 -82 -15 -268 l0 -230 -32 0
c-84 1 -279 22 -371 41 -56 11 -103 21 -104 23 -6 5 43 213 74 316 138 457
378 751 656 803 53 10 69 18 92 45 27 33 68 58 115 73 40 12 43 11 35 -18z
m1031 -734 c24 -11 52 -35 64 -53 19 -33 20 -47 20 -580 l0 -546 -760 0 -760
0 0 546 c0 542 0 547 22 582 12 20 38 42 62 53 39 17 79 19 675 19 622 0 636
0 677 -21z m-1836 -573 c47 -8 131 -17 188 -21 88 -7 102 -10 98 -24 -3 -9
-10 -42 -16 -73 -11 -57 -11 -57 -43 -52 -20 3 -6 -7 41 -27 l72 -32 0 -194 0
-194 -77 6 c-196 16 -351 54 -389 96 -30 33 -26 254 5 412 14 64 27 117 30
117 3 0 44 -7 91 -14z m2439 -98 c31 -153 39 -340 18 -391 -19 -45 -66 -69
-178 -92 -60 -12 -251 -35 -290 -35 -5 0 -9 86 -9 194 l0 193 73 32 c46 20 60
30 40 27 -32 -5 -32 -5 -43 52 -6 31 -13 64 -16 73 -4 14 10 18 98 24 57 4
137 13 178 20 41 7 82 13 91 14 12 1 20 -24 38 -111z"/>
<path d="M1387 3538 c-66 -50 -60 -230 9 -275 18 -12 24 -11 46 6 25 20 48 79
48 124 0 19 -6 26 -21 29 -12 2 -27 11 -33 21 -9 15 -7 22 13 38 l24 20 -23
24 c-26 28 -39 31 -63 13z"/>
<path d="M2266 3520 c-49 -59 -47 -191 5 -243 27 -27 31 -28 52 -15 31 20 57
76 57 121 0 30 -4 37 -20 37 -10 0 -25 10 -31 22 -10 18 -8 24 10 39 18 15 20
22 12 37 -10 18 -32 32 -51 32 -4 0 -20 -14 -34 -30z"/>
<path d="M546 3292 c-15 -7 -7 -13 41 -30 81 -30 85 -35 66 -103 -13 -47 -13
-64 -2 -115 l13 -59 7 57 c6 55 30 108 48 108 5 0 20 -17 33 -37 l23 -38 3 33
c4 45 -33 118 -79 154 -37 30 -116 45 -153 30z"/>
<path d="M3074 3293 c-63 -12 -140 -122 -132 -189 l3 -29 26 43 c24 40 27 41
42 25 23 -26 37 -69 37 -115 0 -53 7 -45 20 21 9 49 3 104 -16 154 -7 19 40
51 101 68 34 10 37 13 20 20 -21 8 -65 9 -101 2z"/>
<path d="M1805 3121 c-77 -19 -125 -84 -125 -168 0 -65 15 -87 23 -34 21 158
232 178 306 29 l21 -43 0 38 c0 78 -60 155 -137 176 -42 12 -45 12 -88 2z"/>
<path d="M1484 2805 c-14 -35 55 -179 121 -252 27 -31 69 -63 103 -80 51 -25
68 -28 157 -28 89 0 106 3 156 28 75 36 148 110 190 191 44 85 35 97 -51 67
-34 -12 -95 -27 -137 -33 -134 -21 -321 16 -461 92 -63 34 -70 36 -78 15z
m319 -246 c12 -6 35 -23 50 -38 l29 -26 -7 27 c-6 25 -4 28 35 38 77 21 143
-27 77 -55 -83 -34 -205 -27 -277 16 l-34 21 24 14 c31 16 74 18 103 3z"/>
<path d="M1905 828 c-79 -212 -132 -365 -128 -370 2 -5 12 -8 21 -8 13 0 27
28 55 108 21 59 51 142 67 185 28 75 28 77 9 87 -14 8 -21 8 -24 -2z"/>
<path d="M1683 701 c-34 -25 -62 -51 -63 -58 0 -13 112 -103 128 -103 5 0 12
7 15 15 5 12 -12 29 -82 82 -3 2 5 11 18 19 12 9 34 26 49 39 24 21 25 25 12
38 -13 13 -22 9 -77 -32z"/>
<path d="M1959 734 c-11 -14 -10 -20 13 -39 15 -13 37 -30 49 -39 13 -8 21
-17 18 -19 -70 -53 -87 -70 -82 -82 3 -8 10 -15 15 -15 18 0 129 92 125 103
-2 7 -31 33 -64 59 -54 43 -62 46 -74 32z"/>
</g>
</svg>
